<svg xmlns="http://www.w3.org/2000/svg" xmlns:xlink="http://www.w3.org/1999/xlink" version="1.1" width="256" height="256" viewBox="0 0 256 256" xml:space="preserve">

<defs>
</defs>
<g style="stroke: none; stroke-width: 0; stroke-dasharray: none; stroke-linecap: butt; stroke-linejoin: miter; stroke-miterlimit: 10; fill: none; fill-rule: nonzero; opacity: 1;" transform="translate(1.4065934065934016 1.4065934065934016) scale(2.81 2.81)" >
	<circle cx="45" cy="45" r="44" style="stroke: none; stroke-width: 1; stroke-dasharray: none; stroke-linecap: butt; stroke-linejoin: miter; stroke-miterlimit: 10; fill: rgb(45,186,45); fill-rule: nonzero; opacity: 1;" transform="  matrix(1 0 0 1 0 0) "/>
	<path d="M 64.321 20.66 l -27.394 8.771 c -2.162 0.692 -3.628 2.702 -3.628 4.971 v 18.555 c -1.072 -0.203 -2.205 -0.254 -3.368 -0.11 c -2.393 0.298 -4.583 1.343 -6.167 2.943 c -1.787 1.806 -2.645 4.186 -2.353 6.531 c 0.52 4.166 4.514 7.179 9.209 7.179 c 0.453 0 0.913 -0.028 1.376 -0.086 c 4.766 -0.594 8.336 -4.132 8.553 -8.184 c 0.014 -0.13 0.022 -0.261 0.022 -0.394 v -0.043 c 0 -0.001 0 -0.002 0 -0.003 V 38.306 c 0 -1.367 0.875 -2.581 2.171 -3.014 l 16.626 -5.548 c 0.986 -0.329 2.004 0.405 2.004 1.444 v 12.737 c -1.088 -0.201 -2.226 -0.24 -3.368 -0.097 c -2.393 0.298 -4.583 1.344 -6.166 2.944 c -1.787 1.806 -2.645 4.187 -2.353 6.531 c 0.519 4.166 4.514 7.18 9.21 7.179 c 0.452 0 0.912 -0.028 1.375 -0.086 c 4.766 -0.594 8.336 -4.133 8.553 -8.184 c 0.014 -0.129 0.022 -0.26 0.022 -0.394 v -0.043 c 0 -0.001 0 -0.003 0 -0.004 l 0 -27.956 C 68.645 21.571 66.459 19.976 64.321 20.66 z" style="stroke: none; stroke-width: 1; stroke-dasharray: none; stroke-linecap: butt; stroke-linejoin: miter; stroke-miterlimit: 10; fill: rgb(255,255,255); fill-rule: nonzero; opacity: 1;" transform=" matrix(1 0 0 1 0 0) " stroke-linecap="round" />
	<path d="M 30.62 70.5 c -5.243 0 -9.628 -3.463 -10.201 -8.055 c -0.33 -2.651 0.63 -5.334 2.634 -7.358 c 1.741 -1.759 4.14 -2.907 6.755 -3.232 c 0.826 -0.102 1.66 -0.119 2.491 -0.044 V 34.402 c 0 -2.715 1.737 -5.096 4.323 -5.924 l 27.395 -8.771 c 1.328 -0.425 2.732 -0.197 3.857 0.624 c 1.125 0.821 1.771 2.091 1.771 3.484 v 27.956 c 0 0.215 -0.01 0.381 -0.027 0.545 c -0.244 4.585 -4.209 8.422 -9.423 9.071 c -0.499 0.063 -1.004 0.094 -1.499 0.094 c -0.001 0 -0.002 0 -0.003 0 c -5.243 0 -9.628 -3.463 -10.199 -8.055 c -0.331 -2.649 0.629 -5.332 2.634 -7.358 c 1.74 -1.759 4.139 -2.907 6.753 -3.233 c 0.831 -0.104 1.663 -0.121 2.492 -0.051 V 31.188 c 0 -0.233 -0.136 -0.365 -0.217 -0.424 c -0.081 -0.058 -0.248 -0.144 -0.47 -0.071 l -16.626 5.548 c -0.89 0.297 -1.488 1.126 -1.488 2.065 V 60.79 c 0 0.215 -0.01 0.381 -0.027 0.545 c -0.245 4.585 -4.21 8.422 -9.424 9.071 C 31.62 70.469 31.116 70.5 30.62 70.5 z M 31.259 53.765 c -0.403 0 -0.805 0.024 -1.205 0.074 c -2.172 0.271 -4.154 1.213 -5.58 2.654 c -1.57 1.587 -2.325 3.666 -2.071 5.704 c 0.449 3.593 3.981 6.303 8.217 6.303 c 0.413 0 0.835 -0.026 1.252 -0.078 c 4.184 -0.521 7.485 -3.636 7.678 -7.245 c 0.014 -0.146 0.021 -0.242 0.021 -0.341 v -22.53 c 0 -1.8 1.147 -3.393 2.855 -3.962 l 16.626 -5.548 c 0.766 -0.255 1.616 -0.126 2.271 0.346 c 0.656 0.473 1.048 1.238 1.048 2.046 v 12.737 c 0 0.297 -0.132 0.579 -0.36 0.769 c -0.229 0.19 -0.529 0.27 -0.821 0.215 c -1.009 -0.187 -2.041 -0.216 -3.063 -0.089 c -2.171 0.271 -4.152 1.213 -5.578 2.655 c -1.57 1.588 -2.326 3.667 -2.071 5.704 c 0.447 3.594 3.979 6.303 8.216 6.303 c 0 0 0.001 0 0.002 0 c 0.413 0 0.834 -0.026 1.252 -0.078 c 4.184 -0.521 7.484 -3.636 7.677 -7.245 c 0.015 -0.146 0.021 -0.242 0.021 -0.34 V 23.816 c 0 -0.747 -0.346 -1.428 -0.95 -1.869 c -0.603 -0.439 -1.355 -0.563 -2.068 -0.334 l 0 0 l -27.394 8.771 c -1.754 0.562 -2.933 2.177 -2.933 4.02 v 18.555 c 0 0.298 -0.133 0.58 -0.362 0.771 c -0.229 0.189 -0.533 0.267 -0.824 0.212 C 32.497 53.823 31.877 53.765 31.259 53.765 z M 64.321 20.66 h 0.01 H 64.321 z" style="stroke: none; stroke-width: 1; stroke-dasharray: none; stroke-linecap: butt; stroke-linejoin: miter; stroke-miterlimit: 10; fill: rgb(0,0,0); fill-rule: nonzero; opacity: 1;" transform=" matrix(1 0 0 1 0 0) " stroke-linecap="round" />
	<path d="M 45 90 C 20.187 90 0 69.813 0 45 C 0 20.187 20.187 0 45 0 c 24.813 0 45 20.187 45 45 C 90 69.813 69.813 90 45 90 z M 45 2 C 21.29 2 2 21.29 2 45 c 0 23.71 19.29 43 43 43 c 23.71 0 43 -19.29 43 -43 C 88 21.29 68.71 2 45 2 z" style="stroke: none; stroke-width: 1; stroke-dasharray: none; stroke-linecap: butt; stroke-linejoin: miter; stroke-miterlimit: 10; fill: rgb(0,0,0); fill-rule: nonzero; opacity: 1;" transform=" matrix(1 0 0 1 0 0) " stroke-linecap="round" />
</g>
</svg>